<svg width="30" height="30" viewBox="0 0 30 30" fill="none" xmlns="http://www.w3.org/2000/svg">
<path d="M15.26 22.6364C14.7747 22.6364 14.3093 22.4436 13.9661 22.1005C13.623 21.7573 13.4302 21.2919 13.4302 20.8066C13.4302 20.3213 13.623 19.8559 13.9661 19.5128C14.3093 19.1696 14.7747 18.9768 15.26 18.9768C15.7453 18.9768 16.2107 19.1696 16.5538 19.5128C16.897 19.8559 17.0898 20.3213 17.0898 20.8066C17.0898 21.2919 16.897 21.7573 16.5538 22.1005C16.2107 22.4436 15.7453 22.6364 15.26 22.6364ZM15.26 17.147C14.7747 17.147 14.3093 16.9542 13.9661 16.6111C13.623 16.2679 13.4302 15.8025 13.4302 15.3172C13.4302 14.8319 13.623 14.3665 13.9661 14.0234C14.3093 13.6802 14.7747 13.4874 15.26 13.4874C15.7453 13.4874 16.2107 13.6802 16.5538 14.0234C16.897 14.3665 17.0898 14.8319 17.0898 15.3172C17.0898 15.8025 16.897 16.2679 16.5538 16.6111C16.2107 16.9542 15.7453 17.147 15.26 17.147ZM15.26 11.6576C14.7747 11.6576 14.3093 11.4649 13.9661 11.1217C13.623 10.7785 13.4302 10.3131 13.4302 9.82784C13.4302 9.34255 13.623 8.87713 13.9661 8.53398C14.3093 8.19083 14.7747 7.99805 15.26 7.99805C15.7453 7.99805 16.2107 8.19083 16.5538 8.53398C16.897 8.87713 17.0898 9.34255 17.0898 9.82784C17.0898 10.3131 16.897 10.7785 16.5538 11.1217C16.2107 11.4649 15.7453 11.6576 15.26 11.6576Z" fill="#56526A"/>
</svg>
